<svg xmlns="http://www.w3.org/2000/svg" viewBox="0 0 172.7 54"><title>logo</title><path d="M22.66,40.42a46.28,46.28,0,0,1,30.42,13,4.78,4.78,0,0,0,1.67-3.62V17.66c-9.53,8.92-22.86,12.27-32.08,22.76M23,27.19A36.75,36.75,0,0,1,.74,14V47.4A73.42,73.42,0,0,1,23,27.19m27-26.58H5.54a4.82,4.82,0,0,0-4.8,4.8v5.67a61,61,0,0,0,31.6,8.77,61.12,61.12,0,0,0,22.4-4.23V5.41a4.82,4.82,0,0,0-4.8-4.8M1,51.33a4.82,4.82,0,0,0,4.55,3.28H49.71A69.15,69.15,0,0,0,1,51.33" transform="translate(-0.74 -0.61)" fill="#1c437d" fill-rule="evenodd"/><path d="M27.74,3a7.58,7.58,0,0,1,7.75,7.4,7.58,7.58,0,0,1-7.75,7.4A7.58,7.58,0,0,1,20,10.39,7.58,7.58,0,0,1,27.74,3" transform="translate(-0.74 -0.61)" fill="#ea2327" fill-rule="evenodd"/><path d="M165.37,23.56a0.69,0.69,0,0,1-.18.47,0.63,0.63,0,0,1-.5.2,0.54,0.54,0,0,1-.43-0.17,0.62,0.62,0,0,1-.15-0.42,0.66,0.66,0,0,1,.18-0.47,0.64,0.64,0,0,1,.5-0.2,0.52,0.52,0,0,1,.41.17,0.6,0.6,0,0,1,.15.41m-0.22,6.67h-1q0.07-1.07.07-2.44a15.18,15.18,0,0,0-.19-2.59l1.07-.14q-0.06,1.12-.06,2.73,0,1.28.08,2.44m-2-.82-0.05.71a2.36,2.36,0,0,1-1.16.25,2.8,2.8,0,0,1-2.11-.77,2.56,2.56,0,0,1-.73-1.84,2.78,2.78,0,0,1,.77-2,2.64,2.64,0,0,1,2-.82,3.47,3.47,0,0,1,1,.13l-0.14.84a3.27,3.27,0,0,0-1.14-.21,1.5,1.5,0,0,0-1.21.53A2,2,0,0,0,160,27.6,2,2,0,0,0,160.5,29a2,2,0,0,0,1.51.58,4.45,4.45,0,0,0,1.11-.2m-6.18-.22q0-.81,0-1.46a5.86,5.86,0,0,0-1.53.15,1,1,0,0,0-.88,1q0,0.73,1,.73a2.12,2.12,0,0,0,1.41-.44m0.94,1-0.84,0a2.2,2.2,0,0,1-.06-0.5h-0.05a2.57,2.57,0,0,1-1.79.6,1.62,1.62,0,0,1-1.06-.36,1.24,1.24,0,0,1-.44-1,1.55,1.55,0,0,1,.69-1.32,4.87,4.87,0,0,1,2.58-.53,2.48,2.48,0,0,0,0-.29,1,1,0,0,0-.35-0.88,2,2,0,0,0-1.06-.22,6.65,6.65,0,0,0-1.65.21l0.09-.74A6.67,6.67,0,0,1,155.8,25a2.39,2.39,0,0,1,1.47.39,1.58,1.58,0,0,1,.52,1.34c0,0.17,0,.47,0,0.91s0,0.73,0,.88a9.36,9.36,0,0,0,.14,1.73m-5-.74-0.07.69a2.3,2.3,0,0,1-.79.16,1.52,1.52,0,0,1-1.31-.49,3.12,3.12,0,0,1-.35-1.75c0-.55,0-1.26,0-2.13l-0.88,0,0-.77,0.91,0q0-.32.05-1.52l0.84-.08c-0.06.75-.09,1.28-0.09,1.61q0.52,0,1.54-.05l0,0.79-1.54,0q0,0.81,0,1.82a3,3,0,0,0,.23,1.45,1,1,0,0,0,.86.36,2.62,2.62,0,0,0,.62-0.11m-4.12-5.94a0.68,0.68,0,0,1-.18.47,0.62,0.62,0,0,1-.5.2,0.54,0.54,0,0,1-.42-0.17,0.62,0.62,0,0,1-.15-0.42,0.67,0.67,0,0,1,.18-0.47,0.65,0.65,0,0,1,.5-0.2,0.52,0.52,0,0,1,.41.17,0.6,0.6,0,0,1,.15.41m-0.22,6.67h-1q0.08-1.07.08-2.44a15.17,15.17,0,0,0-.19-2.59l1.07-.14q-0.06,1.12-.06,2.73,0,1.28.07,2.44m-2.44,0h-1q0.1-1.76.09-4a32.28,32.28,0,0,0-.15-3.53l1.08-.05q-0.1,1.45-.1,3.58t0.1,4m-2.22-6.67a0.69,0.69,0,0,1-.18.47,0.62,0.62,0,0,1-.49.2,0.54,0.54,0,0,1-.42-0.17,0.61,0.61,0,0,1-.15-0.42,0.66,0.66,0,0,1,.18-0.47,0.64,0.64,0,0,1,.5-0.2,0.52,0.52,0,0,1,.41.17,0.6,0.6,0,0,1,.15.41m-0.22,6.67h-1q0.07-1.07.07-2.44a15,15,0,0,0-.19-2.59l1.07-.14c0,0.74-.07,1.66-0.07,2.73q0,1.28.08,2.44m-3.15-2.61a2.19,2.19,0,0,0-.42-1.36,1.37,1.37,0,0,0-1.16-.55,1.58,1.58,0,0,0-1.38.58q0,1.9.08,3.08a1.71,1.71,0,0,0,1.13.36,1.51,1.51,0,0,0,1.31-.61,2.51,2.51,0,0,0,.44-1.5m1-.13a3.2,3.2,0,0,1-.67,2,2.19,2.19,0,0,1-1.83.86,1.9,1.9,0,0,1-1.33-.35h0l-0.14.21h-0.78q0.07-1.84.07-4a31.9,31.9,0,0,0-.18-3.53l1.06-.05q-0.05.92-.05,2.91h0a2.09,2.09,0,0,1,1.66-.6,1.94,1.94,0,0,1,1.59.74,2.71,2.71,0,0,1,.6,1.78m-7.14,1.71q0-.81,0-1.46a5.88,5.88,0,0,0-1.53.15,1,1,0,0,0-.88,1q0,0.73,1,.73a2.12,2.12,0,0,0,1.4-.44m0.94,1-0.84,0a2.19,2.19,0,0,1-.06-0.5H134.3a2.57,2.57,0,0,1-1.79.6,1.62,1.62,0,0,1-1.06-.36,1.24,1.24,0,0,1-.44-1,1.56,1.56,0,0,1,.69-1.32,4.86,4.86,0,0,1,2.58-.53,2.48,2.48,0,0,0,0-.29A1,1,0,0,0,134,26a2,2,0,0,0-1.06-.22,6.65,6.65,0,0,0-1.65.21l0.09-.74a6.64,6.64,0,0,1,1.84-.23,2.4,2.4,0,0,1,1.47.39,1.58,1.58,0,0,1,.52,1.34c0,0.17,0,.47,0,0.91s0,0.73,0,.88a9.37,9.37,0,0,0,.14,1.73m-5.41,0h-1q0.12-1.4.12-3a1.59,1.59,0,0,0-.32-1.17,1.25,1.25,0,0,0-.89-0.3,2.37,2.37,0,0,0-1.5.55c0,1.94,0,3.26,0,3.94h-0.94q0-1.41,0-4a30.31,30.31,0,0,0-.16-3.53l1-.05q0,1.63,0,3h0A2.59,2.59,0,0,1,128,25a2,2,0,0,1,1.33.4,1.73,1.73,0,0,1,.48,1.4c0,0.07,0,.2,0,0.4s0,0.37,0,.52c0,0.51,0,1.36,0,2.53m-6.65-3.12a1.23,1.23,0,0,0-1.26-1.5,1.5,1.5,0,0,0-1.51,1.56Zm0.89,0c0,0.15,0,.36,0,0.62l-3.67.06a1.93,1.93,0,0,0,.6,1.31,2,2,0,0,0,1.46.53,5.64,5.64,0,0,0,1.52-.2l-0.09.75a4.25,4.25,0,0,1-1.51.21,2.81,2.81,0,0,1-2.12-.76,2.56,2.56,0,0,1-.73-1.85,3.14,3.14,0,0,1,.66-2,2.16,2.16,0,0,1,1.78-.84,2,2,0,0,1,1.57.61,2.29,2.29,0,0,1,.53,1.56m-5-1.94-0.24.85a2.09,2.09,0,0,0-.77-0.17,1.25,1.25,0,0,0-1.3,1c0,1.64,0,2.78,0,3.43h-0.94c0.05-1.13.08-2,.08-2.63a11.38,11.38,0,0,0-.25-2.42l0.94-.13a5.55,5.55,0,0,1,.1.79h0A1.63,1.63,0,0,1,118.1,25a3.3,3.3,0,0,1,1,.18m-6.79-1.6a0.69,0.69,0,0,1-.18.47,0.63,0.63,0,0,1-.5.2,0.55,0.55,0,0,1-.43-0.17,0.63,0.63,0,0,1-.15-0.42,0.66,0.66,0,0,1,.18-0.47,0.65,0.65,0,0,1,.5-0.2,0.52,0.52,0,0,1,.41.17,0.59,0.59,0,0,1,.15.41m-0.22,6.67h-1q0.07-1.07.07-2.44A14.84,14.84,0,0,0,111,25.2l1.07-.14Q112,26.18,112,27.79q0,1.28.07,2.44m-4.69,0-0.83,0a2.19,2.19,0,0,1-.08-0.49h-0.05a2.6,2.6,0,0,1-1.72.6,1.77,1.77,0,0,1-1.34-.45,2.73,2.73,0,0,1-.42-1.8c0-.13,0-0.32,0-0.57s0-.42,0-0.52q0-.78-0.09-1.85l1,0c0,0.69-.06,1.27-0.06,1.76A6.87,6.87,0,0,0,104,29.1a0.94,0.94,0,0,0,1,.51,2.25,2.25,0,0,0,1.41-.43q0-3-.05-4l1,0c0,0.67,0,1.6,0,2.77a22.87,22.87,0,0,0,.12,2.3m-5.9,0h-1c0.08-.94.12-2,0.12-3.06a1.48,1.48,0,0,0-.33-1.12,1.37,1.37,0,0,0-1-.3,2.1,2.1,0,0,0-1.4.55q0,1.82,0,3.94H97q0.09-1.82.09-2.63a12.31,12.31,0,0,0-.24-2.42L97.77,25l0.1,0.65h0A2.49,2.49,0,0,1,99.61,25a2.13,2.13,0,0,1,1.37.39,1.71,1.71,0,0,1,.48,1.4c0,0.07,0,.2,0,0.4s0,0.33,0,.4q0,0.89,0,2.66m-5.71-6.67a0.69,0.69,0,0,1-.18.47,0.63,0.63,0,0,1-.49.2,0.54,0.54,0,0,1-.43-0.17,0.61,0.61,0,0,1-.15-0.42,0.66,0.66,0,0,1,.18-0.47,0.64,0.64,0,0,1,.5-0.2,0.52,0.52,0,0,1,.41.17,0.6,0.6,0,0,1,.15.41m-0.22,6.67h-1q0.08-1.07.08-2.44a15,15,0,0,0-.19-2.59l1.07-.14q-0.06,1.12-.07,2.73,0,1.28.08,2.44m-2-.82-0.06.71a2.34,2.34,0,0,1-1.16.25,2.81,2.81,0,0,1-2.11-.77,2.57,2.57,0,0,1-.73-1.84,2.77,2.77,0,0,1,.77-2,2.65,2.65,0,0,1,2-.82,3.49,3.49,0,0,1,1,.13L93.14,26A3.26,3.26,0,0,0,92,25.74a1.51,1.51,0,0,0-1.21.53,2,2,0,0,0-.45,1.33A2,2,0,0,0,90.89,29a2,2,0,0,0,1.51.58,4.46,4.46,0,0,0,1.11-.2m-5.07-5.86a0.69,0.69,0,0,1-.18.47,0.63,0.63,0,0,1-.5.2,0.54,0.54,0,0,1-.42-0.17,0.62,0.62,0,0,1-.15-0.42,0.67,0.67,0,0,1,.18-0.47,0.64,0.64,0,0,1,.5-0.2,0.52,0.52,0,0,1,.41.17,0.6,0.6,0,0,1,.15.41m-0.22,6.67h-1c0-.71.08-1.53,0.08-2.44a15,15,0,0,0-.19-2.59l1.07-.14q-0.06,1.12-.06,2.73c0,0.85,0,1.67.07,2.44M85,29.18c0-1.11,0-2.17-.09-3.2a1.63,1.63,0,0,0-1.08-.36,1.58,1.58,0,0,0-1.35.6A2.45,2.45,0,0,0,82,27.73a2.2,2.2,0,0,0,.42,1.37,1.4,1.4,0,0,0,1.18.56A1.75,1.75,0,0,0,85,29.18m0.86,1-0.8,0a2.66,2.66,0,0,1,0-.48H84.93a2.15,2.15,0,0,1-1.66.61,2,2,0,0,1-1.61-.74,2.72,2.72,0,0,1-.6-1.78,3.21,3.21,0,0,1,.67-2A2.25,2.25,0,0,1,83.6,25a1.77,1.77,0,0,1,1.24.35h0c0-.89,0-1.75-0.07-2.6l1,0c-0.07.9-.1,2.09-0.1,3.55s0,2.81.11,4m-6.73-3.12a1.23,1.23,0,0,0-1.26-1.5,1.51,1.51,0,0,0-1.51,1.56Zm0.89,0c0,0.15,0,.36,0,0.62l-3.67.06a1.93,1.93,0,0,0,.61,1.31,2,2,0,0,0,1.46.53,5.64,5.64,0,0,0,1.52-.2l-0.09.75a4.25,4.25,0,0,1-1.51.21,2.8,2.8,0,0,1-2.12-.76,2.56,2.56,0,0,1-.73-1.85,3.14,3.14,0,0,1,.67-2,2.15,2.15,0,0,1,1.78-.84,2,2,0,0,1,1.57.61A2.28,2.28,0,0,1,80,27.1m-6.62,0A1.56,1.56,0,0,0,73.08,26a1.41,1.41,0,0,0-1-.28,1.79,1.79,0,0,0-1.18.56q0,0.65,0,1.27c0,0.59,0,1.48,0,2.66H70q0.12-1.52.12-3.09a1.55,1.55,0,0,0-.3-1.13,1.35,1.35,0,0,0-.95-0.28,1.78,1.78,0,0,0-1.25.56q0,1.69,0,3.93h-1q0.1-1.82.1-2.63a12.3,12.3,0,0,0-.24-2.42L67.44,25l0.1,0.65h0.05A2.12,2.12,0,0,1,69.13,25a1.66,1.66,0,0,1,1.63.71h0.06A2.43,2.43,0,0,1,72.4,25a2,2,0,0,1,1.36.4,1.77,1.77,0,0,1,.46,1.39c0,0.07,0,.2,0,0.4s0,0.33,0,.4q0,0.89,0,2.66h-1q0.12-1.4.12-3.09m73.86-9.74-0.83,0a2.14,2.14,0,0,1-.07-0.49h-0.05a2.58,2.58,0,0,1-1.72.6,1.77,1.77,0,0,1-1.34-.45,2.73,2.73,0,0,1-.42-1.8c0-.13,0-0.32,0-0.57s0-.43,0-0.52q0-.79-0.09-1.85l1,0c0,0.69-.06,1.27-0.06,1.76a6.92,6.92,0,0,0,.21,2.19,0.94,0.94,0,0,0,1,.51,2.25,2.25,0,0,0,1.41-.43q0-3-.05-4l1,0q0,1,0,2.77a22.65,22.65,0,0,0,.12,2.3m-5.9,0h-1c0.08-.94.12-2,0.12-3.06a1.47,1.47,0,0,0-.33-1.12,1.35,1.35,0,0,0-1-.3,2.09,2.09,0,0,0-1.4.55c0,1.21,0,2.53,0,3.94h-1c0.06-1.21.09-2.09,0.09-2.62a12.26,12.26,0,0,0-.24-2.43l0.94-.13,0.1,0.65h0a2.48,2.48,0,0,1,1.69-.72,2.14,2.14,0,0,1,1.37.39,1.71,1.71,0,0,1,.49,1.4c0,0.07,0,.2,0,0.4s0,0.33,0,.4q0,0.89,0,2.66m-6,0h-1q0.1-1.76.1-4a32.51,32.51,0,0,0-.16-3.53l1.08-.05q-0.1,1.45-.1,3.58c0,1.46,0,2.79.1,4m-3.33-1c0-.54,0-1,0-1.46a5.9,5.9,0,0,0-1.53.15,1,1,0,0,0-.87,1c0,0.48.34,0.73,1,.73a2.12,2.12,0,0,0,1.4-.44m0.95,1-0.84,0a2.18,2.18,0,0,1-.06-0.5H132a2.56,2.56,0,0,1-1.79.6,1.61,1.61,0,0,1-1.06-.36,1.25,1.25,0,0,1-.44-1,1.56,1.56,0,0,1,.7-1.32,4.84,4.84,0,0,1,2.58-.53,2.47,2.47,0,0,0,0-.29,1,1,0,0,0-.35-0.87,2,2,0,0,0-1.06-.22,6.65,6.65,0,0,0-1.65.21l0.09-.74a6.74,6.74,0,0,1,1.84-.23,2.41,2.41,0,0,1,1.47.39,1.58,1.58,0,0,1,.52,1.34c0,0.17,0,.47,0,0.91s0,0.73,0,.88a9.3,9.3,0,0,0,.14,1.73m-4.77,0h-1.25a5.89,5.89,0,0,0-1-1.43,3.88,3.88,0,0,0-1.34-1.27h0c0,0.76,0,1.66.06,2.7h-0.94c0-1.3.07-2.63,0.07-4a33.69,33.69,0,0,0-.15-3.53l1-.05q-0.06,1.15-.06,4.48h0a3.91,3.91,0,0,0,1.11-.9,3.57,3.57,0,0,0,.93-1.09h1.18a2.72,2.72,0,0,1-.84.89,15.45,15.45,0,0,1-1.44,1.1v0a12.47,12.47,0,0,1,1.7,1.72,5.4,5.4,0,0,1,1,1.32m-5.76-6.67a0.68,0.68,0,0,1-.18.47,0.62,0.62,0,0,1-.49.2,0.53,0.53,0,0,1-.42-0.17,0.61,0.61,0,0,1-.15-0.42,0.67,0.67,0,0,1,.18-0.47,0.65,0.65,0,0,1,.5-0.2,0.52,0.52,0,0,1,.41.18,0.6,0.6,0,0,1,.15.41m-0.22,6.67h-1q0.07-1.07.07-2.44a15,15,0,0,0-.19-2.59l1.07-.14q-0.06,1.11-.06,2.73c0,0.86,0,1.67.08,2.44m-2.2-.86,0,0.86h-3.89l0-.83q0.29-.27,1.45-1.69a8.56,8.56,0,0,0,1.26-1.73V13.11c-1.14,0-2,0-2.72.07l0-.84h3.7l-0.05.84q-0.44.48-1.4,1.7a7.64,7.64,0,0,0-1.2,1.72v0q1.61,0,2.81-.08m-4.94-5.81a0.69,0.69,0,0,1-.18.47,0.62,0.62,0,0,1-.5.2,0.54,0.54,0,0,1-.42-0.17,0.61,0.61,0,0,1-.15-0.42,0.68,0.68,0,0,1,.18-0.47,0.66,0.66,0,0,1,.5-0.2,0.52,0.52,0,0,1,.41.18,0.6,0.6,0,0,1,.15.41m-0.22,6.67h-1q0.07-1.07.08-2.44a14.87,14.87,0,0,0-.19-2.59l1.07-.14c0,0.74-.07,1.65-0.07,2.73q0,1.28.08,2.44m-1.67-7.57-0.15.7a2.71,2.71,0,0,0-.64-0.08,0.65,0.65,0,0,0-.66.39,4.58,4.58,0,0,0-.17,1.6q0.53,0,1.48-.05l0,0.8-1.45,0q0,2.43.07,4.25h-1q0.08-1.78.08-4.25l-1.14,0,0-.78c0.49,0,.86,0,1.1,0a4.06,4.06,0,0,1,.4-2.06,1.37,1.37,0,0,1,1.26-.64,3.78,3.78,0,0,1,.79.09m-7.67,6.54q0-.82,0-1.46a5.87,5.87,0,0,0-1.53.15,1,1,0,0,0-.88,1c0,0.48.34,0.73,1,.73a2.12,2.12,0,0,0,1.4-.44m0.95,1-0.84,0a2.13,2.13,0,0,1-.06-0.5h-0.05a2.56,2.56,0,0,1-1.79.6,1.62,1.62,0,0,1-1.06-.36,1.25,1.25,0,0,1-.44-1,1.56,1.56,0,0,1,.69-1.32,4.85,4.85,0,0,1,2.58-.53,2.33,2.33,0,0,0,0-.29,1,1,0,0,0-.35-0.87,2,2,0,0,0-1.06-.22,6.66,6.66,0,0,0-1.65.21l0.09-.74a6.73,6.73,0,0,1,1.84-.23,2.41,2.41,0,0,1,1.47.39,1.58,1.58,0,0,1,.52,1.34c0,0.17,0,.47,0,0.91s0,0.73,0,.88a9.37,9.37,0,0,0,.14,1.73m-5.24-.86,0,0.86H97.27l0-.83c0.19-.18.67-0.74,1.45-1.69A8.61,8.61,0,0,0,100,13.17V13.11c-1.14,0-2,0-2.72.07l0-.84H101l-0.05.84q-0.44.48-1.4,1.7a7.58,7.58,0,0,0-1.2,1.72v0q1.61,0,2.81-.08m-8.39-.2q0-1.66-.09-3.2a1.63,1.63,0,0,0-1.08-.36,1.59,1.59,0,0,0-1.35.6,2.47,2.47,0,0,0-.45,1.51,2.19,2.19,0,0,0,.42,1.37,1.41,1.41,0,0,0,1.18.56,1.74,1.74,0,0,0,1.37-.48m0.86,1.05-0.79,0a2.54,2.54,0,0,1,0-.49H92.77a2.16,2.16,0,0,1-1.67.61,2,2,0,0,1-1.61-.74,2.73,2.73,0,0,1-.6-1.78,3.21,3.21,0,0,1,.67-2,2.25,2.25,0,0,1,1.88-.85,1.77,1.77,0,0,1,1.24.35h0q0-1.32-.07-2.6l1,0q-0.1,1.36-.1,3.55t0.11,4m-6.76-2.5a2.69,2.69,0,0,0-.42-1.48,1.44,1.44,0,0,0-2.38,0,2.5,2.5,0,0,0-.41,1.43,2.69,2.69,0,0,0,.42,1.49,1.35,1.35,0,0,0,1.2.64,1.33,1.33,0,0,0,1.18-.62,2.52,2.52,0,0,0,.41-1.42m0.92-.19A2.85,2.85,0,0,1,87,16.86a2.56,2.56,0,0,1-1.85.77,2.39,2.39,0,0,1-1.7-.68A2.51,2.51,0,0,1,82.78,15a2.88,2.88,0,0,1,.79-2.15,2.54,2.54,0,0,1,1.85-.78,2.37,2.37,0,0,1,1.7.69,2.56,2.56,0,0,1,.71,1.93M82,12.34a15.41,15.41,0,0,1-1.08,2.52,14.25,14.25,0,0,0-1.08,2.55H79.14a13.06,13.06,0,0,0-1-2.61,18,18,0,0,1-1-2.46h1a11.61,11.61,0,0,0,.69,2,12.09,12.09,0,0,1,.7,2h0a11.58,11.58,0,0,1,.66-2A9.19,9.19,0,0,0,81,12.34h1Zm-6.61,4q0-.82,0-1.46a5.86,5.86,0,0,0-1.53.15,1,1,0,0,0-.88,1c0,0.48.34,0.73,1,.73a2.13,2.13,0,0,0,1.4-.44m0.94,1-0.84,0a2.1,2.1,0,0,1-.06-0.5H75.39a2.55,2.55,0,0,1-1.79.6,1.61,1.61,0,0,1-1.06-.36,1.25,1.25,0,0,1-.44-1,1.55,1.55,0,0,1,.69-1.32,4.84,4.84,0,0,1,2.58-.53,2.66,2.66,0,0,0,0-.29A1,1,0,0,0,75,13.14,2,2,0,0,0,74,12.92a6.63,6.63,0,0,0-1.65.21l0.09-.74a6.72,6.72,0,0,1,1.84-.23,2.4,2.4,0,0,1,1.47.39,1.58,1.58,0,0,1,.52,1.34c0,0.17,0,.47,0,0.91s0,0.73,0,.88a9.18,9.18,0,0,0,.14,1.73m-5.24-.89,0,0.89H66.49l0-.64q0.67-.94,2-3a14,14,0,0,0,1.38-2.53V11.15q-1.17,0-3.31.13l0-.82h4.35l0,0.66q-0.61.86-1.87,3a14.78,14.78,0,0,0-1.32,2.47v0.06q1.1,0,3.39-.15m83.49,19a6.19,6.19,0,0,1-.79.85,4.94,4.94,0,0,0-.79.87h-0.93a4.94,4.94,0,0,1,.54-0.88,6.43,6.43,0,0,0,.55-0.85h1.42ZM154,37.93L153.73,39a3.28,3.28,0,0,0-1-.15,1.27,1.27,0,0,0-1.09.54,2.05,2.05,0,0,0-.39,1.25q0,1.49,1.13,1.49a2.77,2.77,0,0,0,1.42-.47l-0.17,1.06a2.61,2.61,0,0,1-1.58.48,1.92,1.92,0,0,1-1.63-.69,2.74,2.74,0,0,1-.52-1.71,2.93,2.93,0,0,1,3.05-3,5.27,5.27,0,0,1,1.1.1m-4.44-1.66a1,1,0,0,1-.29.71,1,1,0,0,1-.71.3,0.63,0.63,0,0,1-.5-0.2,0.71,0.71,0,0,1-.18-0.5,1,1,0,0,1,1-1,0.6,0.6,0,0,1,.68.69m-0.41,1.61c0,0.1,0,.46-0.12,1.1s-0.15,1.15-.19,1.54q-0.12,1.11-.2,2.54l-1.36.05q0.11-.69.34-2.59a18.28,18.28,0,0,0,.11-1.89q0-.36,0-0.59Zm-2.23.05a10,10,0,0,1-1.16,2.64,15.59,15.59,0,0,0-1.19,2.49h-1.38a10.71,10.71,0,0,0-.54-2.61,11.06,11.06,0,0,1-.54-2.46l1.46-.06a11.19,11.19,0,0,0,.3,1.93,11.45,11.45,0,0,1,.3,1.88h0.06a13.6,13.6,0,0,1,.67-1.72,6.73,6.73,0,0,0,.66-2ZM140,40.25a1.91,1.91,0,0,0-.29-1.09,0.89,0.89,0,0,0-.78-0.42,1.17,1.17,0,0,0-1,.63,2.61,2.61,0,0,0-.39,1.4,1.9,1.9,0,0,0,.29,1.09,0.91,0.91,0,0,0,.79.43,1.16,1.16,0,0,0,1-.63,2.67,2.67,0,0,0,.38-1.4m1.35-.12a3.18,3.18,0,0,1-.83,2.22,2.76,2.76,0,0,1-2.14.92,2.1,2.1,0,0,1-1.56-.66,2.41,2.41,0,0,1-.65-1.76,3.11,3.11,0,0,1,.83-2.19,2.79,2.79,0,0,1,2.14-.9,2.12,2.12,0,0,1,1.56.64,2.34,2.34,0,0,1,.64,1.74M135.54,38l-0.14,1.06-1.23,0a15.38,15.38,0,0,0-.22,2.16,1.56,1.56,0,0,0,.12.73,0.45,0.45,0,0,0,.42.2,1.89,1.89,0,0,0,1-.33l-0.18,1a1.89,1.89,0,0,1-1.2.38A1.35,1.35,0,0,1,133,42.8a1.92,1.92,0,0,1-.32-1.25,21.09,21.09,0,0,1,.27-2.48l-0.73,0L132.38,38l0.74,0c0-.25.11-0.75,0.23-1.49l1.19-.16c-0.06.34-.14,0.89-0.25,1.65,0.29,0,.7,0,1.25,0m-5.37,2.22a1.91,1.91,0,0,0-.29-1.09,0.89,0.89,0,0,0-.78-0.42,1.17,1.17,0,0,0-1,.63,2.62,2.62,0,0,0-.39,1.4,1.9,1.9,0,0,0,.29,1.09,0.9,0.9,0,0,0,.78.43,1.15,1.15,0,0,0,1-.63,2.66,2.66,0,0,0,.38-1.4m1.35-.12a3.18,3.18,0,0,1-.83,2.22,2.75,2.75,0,0,1-2.13.92A2.09,2.09,0,0,1,127,42.6a2.41,2.41,0,0,1-.65-1.76,3.11,3.11,0,0,1,.83-2.19,2.79,2.79,0,0,1,2.14-.9,2.12,2.12,0,0,1,1.56.64,2.34,2.34,0,0,1,.64,1.74m-5.66-4-0.19,1.1q-0.65.83-1.9,2.63a10,10,0,0,0-1.26,2.05V42q1.07,0,2.86-.12l-0.16,1.21h-4.53l0.19-1.1q0.65-.79,2-2.63a11.06,11.06,0,0,0,1.33-2.09V37.15c-0.81,0-1.74,0-2.8.12l0.16-1.17h4.34Zm-7.61,1.82a10,10,0,0,1-1.16,2.64,15.39,15.39,0,0,0-1.19,2.49h-1.38a10.83,10.83,0,0,0-.54-2.61,11,11,0,0,1-.54-2.46l1.46-.06a11,11,0,0,0,.3,1.93,11.48,11.48,0,0,1,.3,1.88h0.06a13.62,13.62,0,0,1,.68-1.72,6.79,6.79,0,0,0,.65-2Zm-7,.91a2,2,0,0,0-1.64.65,2.65,2.65,0,0,0-.52,1.73c0,0.66.2,1,.62,1a1.11,1.11,0,0,0,.88-0.7,4,4,0,0,0,.51-1.34c0.07-.43.12-0.87,0.15-1.33m1.37-1.09a32.88,32.88,0,0,0-.43,4,9.77,9.77,0,0,0,.09,1.26l-1.31.15q0-.44,0-1h-0.08a1.9,1.9,0,0,1-1.76,1.08,1.14,1.14,0,0,1-1-.5,2.42,2.42,0,0,1-.34-1.38,3.37,3.37,0,0,1,.88-2.27A3.57,3.57,0,0,1,111.39,38l0.24-.16Zm-5.4-2.28c0,0.18-.05.65-0.16,1.4s-0.2,1.49-.28,2.22q-0.26,2.47-.34,3.95l-1.38.08c0-.06.06-0.52,0.17-1.37s0.22-1.74.32-2.66a34.47,34.47,0,0,0,.22-3.54Zm-2.81,2.43L104.15,39a4,4,0,0,0-1.22-.18q-0.83,0-.83.51a1,1,0,0,0,.78.65,1.76,1.76,0,0,1,1.39,1.53q0,1.73-2.44,1.73a5.4,5.4,0,0,1-1.41-.16L100.7,42a3.67,3.67,0,0,0,1.24.21c0.76,0,1.14-.17,1.14-0.52A1,1,0,0,0,102.3,41a3.73,3.73,0,0,1-1-.55,1.21,1.21,0,0,1-.43-0.94,1.42,1.42,0,0,1,.62-1.27,2.64,2.64,0,0,1,1.52-.42,7.15,7.15,0,0,1,1.4.11M98.7,40.25a1.92,1.92,0,0,0-.29-1.09,0.89,0.89,0,0,0-.78-0.42,1.17,1.17,0,0,0-1,.63,2.61,2.61,0,0,0-.39,1.4,1.9,1.9,0,0,0,.29,1.09,0.9,0.9,0,0,0,.78.43,1.15,1.15,0,0,0,1-.63,2.66,2.66,0,0,0,.38-1.4m1.35-.12a3.17,3.17,0,0,1-.83,2.22,2.75,2.75,0,0,1-2.13.92,2.1,2.1,0,0,1-1.56-.66,2.41,2.41,0,0,1-.65-1.76,3.11,3.11,0,0,1,.83-2.19,2.79,2.79,0,0,1,2.14-.9,2.12,2.12,0,0,1,1.56.64,2.35,2.35,0,0,1,.64,1.74m-5.33-2.2L94.3,39.18a2.57,2.57,0,0,0-.75-0.11,1,1,0,0,0-1.08,1.06c-0.11,1.07-.2,2-0.26,2.92l-1.34.05a33.7,33.7,0,0,0,.37-3.73A13.11,13.11,0,0,0,91.16,38l1.32-.13c0,0.24,0,.47,0,0.71h0.08a1.59,1.59,0,0,1,1.33-.77,3.07,3.07,0,0,1,.8.12m-4.17-1.66a1,1,0,0,1-.29.71,1,1,0,0,1-.71.3,0.63,0.63,0,0,1-.5-0.2,0.71,0.71,0,0,1-.18-0.5,1,1,0,0,1,1-1,0.6,0.6,0,0,1,.68.69m-0.41,1.61c0,0.1,0,.46-0.12,1.1s-0.15,1.15-.19,1.54q-0.12,1.11-.2,2.54l-1.36.05q0.11-.69.34-2.59a18.06,18.06,0,0,0,.11-1.89q0-.36,0-0.59ZM87.23,36.1a34.58,34.58,0,0,0-.17,3.8c0,1,0,2,.08,3.15H85.61q0-2.22.32-5.77H85.85c-0.05.22-.17,0.58-0.34,1.09s-0.52,1.35-1,2.54a13,13,0,0,0-.82,2.14H82.48a15.44,15.44,0,0,0-.4-2.22c-0.27-1.2-.43-2-0.49-2.33s-0.11-.76-0.15-1.22H81.36q-0.07.61-.44,3.06t-0.37,2.71H79.18q0-.15.69-3.31c0.46-2.11.71-3.32,0.75-3.64h1.94A15.59,15.59,0,0,0,83,38.75a15.89,15.89,0,0,1,.39,2.6h0.08a14.73,14.73,0,0,1,.93-2.64,15,15,0,0,0,.92-2.61h2ZM76.91,37.93l-0.42,1.25a2.56,2.56,0,0,0-.75-0.11,1,1,0,0,0-1.08,1.06q-0.17,1.61-.26,2.92l-1.34.05a34,34,0,0,0,.37-3.73A12.39,12.39,0,0,0,73.35,38l1.33-.13c0,0.24,0,.47,0,0.71h0.08a1.59,1.59,0,0,1,1.32-.77,3.08,3.08,0,0,1,.8.12M71,39.22a2.22,2.22,0,0,0-.5-1.5A1.92,1.92,0,0,0,69,37.14a5.37,5.37,0,0,0-.62,0c0,0.33-.09,1.07-0.2,2.23q-0.13,1.28-.22,2.53a3.19,3.19,0,0,0,.68.07,2.1,2.1,0,0,0,1.76-.83,3.14,3.14,0,0,0,.64-2M72.4,39a4.11,4.11,0,0,1-1.09,2.87,3.62,3.62,0,0,1-2.79,1.19c-0.53,0-1.23,0-2.1-.06q0.11-.73.44-3.64c0.14-1.29.21-2.4,0.23-3.31H68l0.65,0,0.66,0a3,3,0,0,1,2.29.85A3.06,3.06,0,0,1,72.4,39m101-8.82-0.83,0a2.12,2.12,0,0,1-.07-0.49h-0.05a2.6,2.6,0,0,1-1.73.6,1.78,1.78,0,0,1-1.34-.45,2.75,2.75,0,0,1-.42-1.8c0-.13,0-0.32,0-0.57s0-.42,0-0.52q0-.78-0.09-1.85l1,0c0,0.69-.06,1.27-0.06,1.76a6.88,6.88,0,0,0,.21,2.19,0.94,0.94,0,0,0,1,.51,2.25,2.25,0,0,0,1.41-.43q0-3-.05-4l1,0c0,0.67,0,1.6,0,2.77q0,1.14.12,2.3m-5.69-6.67a0.69,0.69,0,0,1-.18.47,0.63,0.63,0,0,1-.5.2,0.54,0.54,0,0,1-.42-0.17,0.62,0.62,0,0,1-.15-0.42,0.67,0.67,0,0,1,.18-0.47,0.65,0.65,0,0,1,.51-0.2,0.52,0.52,0,0,1,.41.17,0.6,0.6,0,0,1,.15.41M167.52,25c-0.06,1.11-.09,2.21-0.09,3.32q0,0.44,0,1.17c0,0.48,0,.81,0,1a1.88,1.88,0,0,1-1.31,2.09l-0.27-.4a1.66,1.66,0,0,0,.59-0.85,14.23,14.23,0,0,0,.17-2.77,19.91,19.91,0,0,0-.21-3.41Z" transform="translate(-0.74 -0.61)" fill="#2d3f50"/><path d="M53,53.38l0.06,0.05a4.81,4.81,0,0,0,1.57-2.68A4.81,4.81,0,0,1,53,53.38Z" transform="translate(-0.74 -0.61)" fill="#1c437d"/><path d="M0.74,14v0h0Z" transform="translate(-0.74 -0.61)" fill="#1c437d"/><path d="M1,51.32L1,51.33a4.82,4.82,0,0,0,4.55,3.28H49.71l-0.29-.13H5.55A4.82,4.82,0,0,1,1,51.32Z" transform="translate(-0.74 -0.61)" fill="#1c437d"/><path d="M0.77,4.87a4.72,4.72,0,0,0,0,.54v5.67h0V5.27C0.75,5.13.76,5,.77,4.87Z" transform="translate(-0.74 -0.61)" fill="#1c437d"/><path d="M54,52.24a4.89,4.89,0,0,1-.42.57A4.9,4.9,0,0,0,54,52.24Z" transform="translate(-0.74 -0.61)" fill="#fff"/><path d="M3.36,53.95a4.91,4.91,0,0,1-.57-0.35A5,5,0,0,0,3.36,53.95Z" transform="translate(-0.74 -0.61)" fill="#fff"/><path d="M5.55,54.48a4.87,4.87,0,0,1-.68-0.05A4.89,4.89,0,0,0,5.55,54.48Z" transform="translate(-0.74 -0.61)" fill="#fff"/><path d="M4.73,54.4a4.57,4.57,0,0,1-.64-0.16A4.6,4.6,0,0,0,4.73,54.4Z" transform="translate(-0.74 -0.61)" fill="#fff"/><path d="M4,54.23A4.91,4.91,0,0,1,3.45,54,4.86,4.86,0,0,0,4,54.23Z" transform="translate(-0.74 -0.61)" fill="#fff"/><path d="M54.64,50.76a4.81,4.81,0,0,1-.58,1.42A4.79,4.79,0,0,0,54.64,50.76Z" transform="translate(-0.74 -0.61)" fill="#fff"/><path d="M1.75,52.59a4.83,4.83,0,0,0,1,1A4.85,4.85,0,0,1,1.75,52.59Z" transform="translate(-0.74 -0.61)" fill="#fff"/><path d="M54.74,17.66v0.17l0,0V15.62h0a61.09,61.09,0,0,1-22.4,4.23A61,61,0,0,1,.75,11.09V14A36.75,36.75,0,0,0,23,27.19,73.43,73.43,0,0,0,.75,47.38v2.3A4.71,4.71,0,0,0,1,51.31a69.13,69.13,0,0,1,48.38,3.17H50a4.76,4.76,0,0,0,3-1.11,46.28,46.28,0,0,0-30.35-13C31.88,29.92,45.21,26.58,54.74,17.66Z" transform="translate(-0.74 -0.61)" fill="#fff"/><path d="M54.06,52.17l0,0.07Z" transform="translate(-0.74 -0.61)" fill="#1c437d"/><path d="M53.6,52.81l-0.07.08Z" transform="translate(-0.74 -0.61)" fill="#1c437d"/><polygon points="53.9 50.15 53.9 50.15 53.9 50.15 53.9 50.15" fill="#1c437d"/><path d="M54.74,17.66c-9.53,8.92-22.86,12.27-32.08,22.76A46.28,46.28,0,0,1,53,53.38a4.64,4.64,0,0,0,.51-0.5l0.07-.08A4.89,4.89,0,0,0,54,52.24l0-.07a4.81,4.81,0,0,0,.58-1.42h0a4.78,4.78,0,0,0,.1-0.95V17.66Z" transform="translate(-0.74 -0.61)" fill="#1c437d"/><path d="M23,27.19A36.75,36.75,0,0,1,.75,14V47.38A73.43,73.43,0,0,1,23,27.19Z" transform="translate(-0.74 -0.61)" fill="#1c437d"/><path d="M4.87,54.43l-0.15,0Z" transform="translate(-0.74 -0.61)" fill="#1c437d"/><path d="M4.09,54.25L4,54.23Z" transform="translate(-0.74 -0.61)" fill="#1c437d"/><path d="M3.45,54l-0.09,0Z" transform="translate(-0.74 -0.61)" fill="#1c437d"/><path d="M1.75,52.59h0Z" transform="translate(-0.74 -0.61)" fill="#1c437d"/><path d="M2.79,53.6l0,0Z" transform="translate(-0.74 -0.61)" fill="#1c437d"/><path d="M1,51.32a4.83,4.83,0,0,0,.7,1.27h0a4.85,4.85,0,0,0,1,1l0,0a4.91,4.91,0,0,0,.57.35l0.09,0a4.91,4.91,0,0,0,.57.24l0.06,0a4.57,4.57,0,0,0,.64.16l0.15,0a4.87,4.87,0,0,0,.68.05H49.43A69.12,69.12,0,0,0,1,51.32Z" transform="translate(-0.74 -0.61)" fill="#1c437d"/><path d="M0.77,4.87c0,0.13,0,.26,0,0.4,0-.13,0-0.26,0-0.4h0Z" transform="translate(-0.74 -0.61)" fill="#1c437d"/><path d="M54.74,15.63V5.41a4.82,4.82,0,0,0-4.8-4.8H5.54A4.82,4.82,0,0,0,.77,4.87c0,0.13,0,.26,0,0.4v5.82a61,61,0,0,0,31.59,8.77A61.09,61.09,0,0,0,54.74,15.63Z" transform="translate(-0.74 -0.61)" fill="#1c437d"/><path d="M27.74,3a7.58,7.58,0,0,1,7.75,7.4,7.58,7.58,0,0,1-7.75,7.4A7.58,7.58,0,0,1,20,10.39,7.58,7.58,0,0,1,27.74,3" transform="translate(-0.74 -0.61)" fill="#ea2327" fill-rule="evenodd"/></svg>