<svg xmlns="http://www.w3.org/2000/svg" viewBox="0 0 16.05 18"><title>stetoscope</title><path d="M17.2,4.82h0.64A3,3,0,0,0,16.62,2a1,1,0,1,0-.18.64A2.45,2.45,0,0,1,17.2,4.82ZM11.86,2A1,1,0,0,0,9.79,2c-0.9.45-1.25,1.54-1.25,2.83H9.18A2.45,2.45,0,0,1,10,2.61a1,1,0,0,0,.87.49A1,1,0,0,0,11.86,2ZM5.36,12.1c0,0.61-.6,1.25-0.28,1.25a1.19,1.19,0,0,0,0-2.38C4.77,11,5.37,11.52,5.36,12.1Zm-3.25.06A2.93,2.93,0,0,0,4.21,15,4.9,4.9,0,0,0,13.94,14s0-1.27,0-2.17a5,5,0,0,0,4.23-5s0-1.54,0-1.55V5.27H17V6.89a3.8,3.8,0,1,1-7.6,0s0-1.53,0-1.55V5.27H8.22V5.33s0,1.54,0,1.55a5,5,0,0,0,4.67,5V14a3.86,3.86,0,0,1-7.59,1A2.93,2.93,0,1,0,2.12,12.16Zm0.89,0a2,2,0,1,1,2.16,2H4.54l-0.09,0h0l-0.07,0h0l-0.07,0h0L4.21,14h0L4.12,14A2,2,0,0,1,3,12.16Z" transform="translate(-2.12 -1)" fill="#231f20" opacity="0.77"/></svg>